HIERARCHY
ROOT Hips
{
  OFFSET 40.094901621341705 -48.02098125219345 -0.006545707583427429
  CHANNELS 6 Xposition Yposition Zposition Xrotation Yrotation Zrotation
  JOINT Spine
  {
    OFFSET 0.22830317417781032 8.97819772362709 -2.327803475782275
    CHANNELS 3 Xrotation Yrotation Zrotation
    JOINT Spine1
    {
      OFFSET 0.15220211611853074 5.985465149084732 -1.5518689838548503
      CHANNELS 3 Xrotation Yrotation Zrotation
      JOINT Spine2
      {
        OFFSET 0.15220211611853784 5.985465149084725 -1.5518689838548503
        CHANNELS 3 Xrotation Yrotation Zrotation
        JOINT Neck
        {
          OFFSET 0.22830317417781032 8.97819772362709 -2.327803475782275
          CHANNELS 3 Xrotation Yrotation Zrotation
          JOINT Head
          {
            OFFSET 1.0732974443170704 3.0963681017359086 -2.851170130694906
            CHANNELS 3 Xrotation Yrotation Zrotation
            End Site
            {
              OFFSET 0 0 0
            }
          }
        }
        JOINT LeftShoulder
        {
          OFFSET 1.6266551282670818 5.79453781247139 0.9475916158407935
          CHANNELS 3 Xrotation Yrotation Zrotation
          JOINT LeftArm
          {
            OFFSET 2.9489060242970737 -0.38185467322667677 4.998921199391285
            CHANNELS 3 Xrotation Yrotation Zrotation
            JOINT LeftForeArm
            {
              OFFSET 2.823883295059204 -12.198741734027863 -10.114291589707136
              CHANNELS 3 Xrotation Yrotation Zrotation
              JOINT LeftHand
              {
                OFFSET 0.508609414100647 8.592727780342102 -25.575653463602066
                CHANNELS 3 Xrotation Yrotation Zrotation
                End Site
                {
                  OFFSET 0 0 0
                }
              }
            }
          }
        }
        JOINT RightShoulder
        {
          OFFSET -1.3222508960300061 6.176392485698059 -4.051329583550491
          CHANNELS 3 Xrotation Yrotation Zrotation
          JOINT RightArm
          {
            OFFSET -2.9489060242970737 0.38185467322667677 -4.998921199391287
            CHANNELS 3 Xrotation Yrotation Zrotation
            JOINT RightForeArm
            {
              OFFSET 0.031200051307678223 -14.766395092010498 -17.425642907619476
              CHANNELS 3 Xrotation Yrotation Zrotation
              JOINT RightHand
              {
                OFFSET 6.745836138725281 9.39038097858429 -18.032357096672058
                CHANNELS 3 Xrotation Yrotation Zrotation
                End Site
                {
                  OFFSET 0 0 0
                }
              }
            }
          }
        }
      }
    }
  }
  JOINT LeftUpLeg
  {
    OFFSET 3.0093953013420105 0.2371177077293396 4.272501543164253
    CHANNELS 3 Xrotation Yrotation Zrotation
    JOINT LeftLeg
    {
      OFFSET 4.740941524505615 -15.277105569839478 0.8232623338699341
      CHANNELS 3 Xrotation Yrotation Zrotation
      JOINT LeftFoot
      {
        OFFSET 0.6677210330963135 -13.607543706893921 25.9634368121624
        CHANNELS 3 Xrotation Yrotation Zrotation
        JOINT LeftToeBase
        {
          OFFSET 0.8329784870147705 -5.263383388519287 -4.488393664360046
          CHANNELS 3 Xrotation Yrotation Zrotation
          End Site
          {
            OFFSET 0 0 0
          }
        }
      }
    }
  }
  JOINT RightUpLeg
  {
    OFFSET -3.0093953013420105 -0.2371177077293396 -4.272501543164253
    CHANNELS 3 Xrotation Yrotation Zrotation
    JOINT RightLeg
    {
      OFFSET -5.372783541679382 -15.382078289985657 1.738438941538334
      CHANNELS 3 Xrotation Yrotation Zrotation
      JOINT RightFoot
      {
        OFFSET -3.4210652112960815 -9.683668613433838 28.225924633443356
        CHANNELS 3 Xrotation Yrotation Zrotation
        JOINT RightToeBase
        {
          OFFSET -1.5515470504760778 -5.441756248474121 -4.010108113288879
          CHANNELS 3 Xrotation Yrotation Zrotation
          End Site
          {
            OFFSET 0 0 0
          }
        }
      }
    }
  }
}
MOTION
Frames: 6
Frame Time: 0.03333333333333333
36.65401637554169 -49.84147995710373 -0.005885586142539978 0.0 0.0 0.0 46.489882157155066 9.119710634737858 81.44335102887983 46.48988215715512 9.11971063473786 81.44335102887985 46.48988215715493 9.11971063473785 81.4433510288798 46.48988215715506 9.119710634737862 81.44335102887983 107.8972151891021 20.502753327527518 42.67648247915679 -65.29792274115987 -37.09010651912741 74.49556965571487 59.540312561693675 -78.31650822077741 -60.06179985999975 -114.2167795607337 14.40372461773095 -96.38379198513707 162.51742897297916 85.82260680839028 72.56105578357841 85.065322490913 40.78167426406538 86.77220062611599 120.45968743830633 78.31650822077742 119.93820014000026 -94.25115164625971 29.50895501252576 -92.09685981469698 86.88911163421528 -15.460267561394492 11.523602743599298 2.126007860646232 -70.8015867115502 -2.251082478507093 21.619619633205488 -10.889791048257244 -64.51371708876641 84.93769107087971 -48.14453972874381 -86.22506740851715 29.814956704226834 25.964000155157706 -75.91599687324228 177.8739921393538 70.8015867115502 177.7489175214929 141.8447393416118 -12.141230933074542 -104.98676486738542 114.47282123692942 -62.21364560954061 -111.93320024840041 -51.973282169805024 8.84657564323083 -101.12536615952484
36.57296895980835 -50.02622753381729 -0.005786493420600891 0.0 0.0 0.0 46.376333851670616 9.674975406951116 80.90007554740323 46.37633385167043 9.674975406951104 80.90007554740319 46.376333851670616 9.674975406951125 80.90007554740323 46.3763338516706 9.6749754069511 80.90007554740325 108.02955205973615 19.57269611183092 44.17486924727401 -64.30422725431914 -36.54923124423835 74.0104996458039 58.82671521083407 -78.66215632984844 -59.324507418528476 -122.58964547400504 13.339353985629073 -98.39015876355661 114.22259872527142 81.88928957275003 24.43883273775664 84.32463599910957 41.26571747397778 86.24987588597047 121.17328478916589 78.66215632984844 120.67549258147149 -97.44768160450434 34.24153835876877 -94.20686980372214 89.44789287795747 -2.308517565495895 13.454174588637706 0.7579252207449904 -70.7020415545796 -0.8030404530870129 -0.9730970062671569 0.48676107637353966 -63.42741666206289 85.16902202186026 -43.17460945139894 -86.69035944421844 27.955895259647022 28.394369424568463 -75.8355636244555 179.242074779255 70.7020415545796 179.196959546913 144.75829541202376 -10.784304099841012 -104.83360771225257 115.88443845030419 -57.68934445841106 -112.29878909283768 -24.667655146374724 24.339877575916823 -100.71844245330328
36.56473010778427 -50.27499496936798 -0.00457763671875 0.0 0.0 0.0 42.2352400018388 8.446939521508304 80.80914892189709 42.23524000183868 8.4469395215083 80.80914892189706 42.23524000183885 8.446939521508298 80.8091489218971 42.23524000183868 8.4469395215083 80.80914892189706 108.0638502832946 17.150884411077282 47.88183000866368 -64.2975345836701 -39.64847297754406 72.92728950234107 57.874479982987616 -78.13193369752503 -58.42939529315996 111.42169150273766 -24.128793519338835 -99.11157568113423 58.801188028075735 65.87367934557939 -33.56655070569283 85.17714109111105 41.645066412756435 86.7909109465141 122.12552001701239 78.13193369752503 121.57060470684006 -95.10722787879612 50.84208111268488 -93.96437134697487 105.72072049287432 45.817165830537256 21.430574597138182 0.19567274671518306 -71.08329919713303 -0.2068441218421869 3.542663637430795 -1.8528927240935906 -62.42352168037866 87.85854862288976 -49.179748968550705 -88.37910409085825 34.32022605520622 22.14411408967896 -75.56947233833851 179.8043272532848 71.08329919713303 179.79315587815782 150.43965397347333 -8.802604779140204 -105.09982816603979 115.31037943364214 -61.390778832869486 -112.54718975107608 -29.136449649144758 21.403909660263487 -101.4986282693885
36.69537156820297 -50.18915235996246 -0.005562230944633484 0.0 0.0 0.0 39.930271524494565 7.759633607777639 80.83678343674312 39.93027152449458 7.759633607777642 80.83678343674312 39.930271524494565 7.759633607777639 80.83678343674312 39.930271524494565 7.759633607777638 80.83678343674312 121.08576235804411 29.751761106727137 50.54240509319969 -59.40709453313478 -36.58369935909774 70.58898390224569 45.574829555372055 -75.97028009665127 -46.44182753897988 173.64485670481537 -1.4926123868896355 -103.16352820231663 36.33384188222539 62.0948238303857 -56.97760998787382 88.28255499958668 39.56765426173621 88.90581185987627 134.42517044462795 75.97028009665127 133.55817246102015 -93.49432485448085 46.445997672780095 -92.53391664108022 104.36550101649699 26.187067277882964 30.129150865006412 -0.880024053311078 -69.33403788277693 0.9405339412399895 19.05644589341277 -8.91370299316857 -65.84082035635888 87.9838352274543 -56.13739857857172 -88.32561029059588 35.25516517095899 21.351809788064823 -75.5672830881749 -179.11997594668892 69.33403788277693 -179.05946605876002 153.79364991775935 -8.235804049835147 -106.22688483052536 113.70812631830431 -61.52505559619984 -111.1072867686757 -29.018103725024133 21.247761830400673 -101.3667884287114
36.71397566795349 -49.53255653381348 -0.004829838871955872 0.0 0.0 0.0 36.47571150831371 7.234536135128796 80.33317526285985 36.4757115083136 7.234536135128796 80.33317526285981 36.47571150831376 7.234536135128796 80.33317526285987 36.475711508313594 7.234536135128792 80.33317526285981 131.06393226751052 37.03207523178096 55.34529577993221 -48.94020509863188 -29.2408009460637 66.94898533274142 45.29677300828218 -67.44002579315672 -47.57390419649975 -132.23101506010215 17.343119226209595 -105.14100813673947 37.05318613446068 74.36883149972525 -53.97957787235756 90.34160732273334 32.21092365419726 90.18209109076057 134.7032269917178 67.4400257931567 132.42609580350023 -94.15298463586683 53.15327418739663 -93.32548835459644 106.06311725613475 41.66955768456771 23.41732968967677 8.288083447891308 -66.07106691486312 -9.055065348261582 24.0020828086319 -10.562550856988532 -67.62410535253785 87.10211653157725 -57.91624542447921 -87.54411223393149 30.120461677389894 26.8275747623603 -75.3276728937254 171.7119165521087 66.07106691486312 170.94493465173844 -157.62985642860156 7.106725758554739 -106.73113485958888 111.3908845970996 -61.52628456236016 -109.00007573102148 -20.912232691389683 26.396183961181524 -99.64112058121846
36.661042273044586 -48.99924397468567 -0.005091726779937744 0.0 0.0 0.0 -6.288672269803331 -1.0485482140162279 80.57168677946447 -6.288672269803317 -1.0485482140162283 80.57168677946444 -6.288672269803355 -1.0485482140162277 80.5716867794645 -6.288672269803336 -1.0485482140162283 80.57168677946447 136.84547352762405 39.21359430631738 59.34290651902632 -50.37941236927454 -32.59354113516433 65.96515916509172 45.705396269851846 -62.00985248834731 -49.25349368632661 -102.19014919868846 25.859553881837602 -95.38274991837763 75.1344039814395 78.30821038276424 -15.166196640396432 92.22694661194173 22.907644155941373 90.86720248846176 134.29460373014814 62.009852488347285 130.74650631367336 -103.40168689123033 60.142630777867666 -101.67522985403349 105.43638515914293 52.69439444094719 19.14452145625414 14.638408050978128 -63.0758280512182 -16.327963793769523 30.66460543107783 -12.800048260834723 -69.51143598782303 85.55671093677948 -61.43894832221167 -86.09563533912984 29.898598160375418 25.946784477373775 -75.87857462625455 165.36159194902186 63.0758280512182 163.67203620623047 -141.9433198384694 14.172779419763817 -107.36714508384968 108.07179318726374 -63.1334783157291 -106.22947079596857 -18.768126909706716 25.962578469276213 -98.46138909814735
